PathFileType	4	(X/Y/Z)	C:/Users/opensim2020/Desktop/walking_exp_matlab/subject01/subject01_trc/subject01_walking16_run_cyclic.trc	
DataRate	CameraRate	NumFrames	NumMarkers	Units	OrigDataRate	OrigDataStartFrame	OrigNumFrames	
100.00	100.00	4	63	mm	100.00	399	54	
Frame#	Time	LKNE			RELB			LTHI			RUPA			LTIB			RFRM			LTOE			LSHO			RWRA			RSHO			RWRB			STRN			RFIN			RBHD			CLAV			LHEE			LFHD			RASI			RFHD			LBHD			C7			LWRB			LWRA			LFRM			RTHI			RKNE			LELB			LFIN			LUPA			RTIB			RANK			RTOE			RHEE			T10			RBAK			LASI			LPSI			RPSI			LANK			*39			*40			*41			*42			*43			*44			*45			*46			*47			*48			*49			*50			*51			*52			*53			*54			*55			*56			*57			*58			*59			*60			*61			*62			
		X1	Y1	Z1	X2	Y2	Z2	X3	Y3	Z3	X4	Y4	Z4	X5	Y5	Z5	X6	Y6	Z6	X7	Y7	Z7	X8	Y8	Z8	X9	Y9	Z9	X10	Y10	Z10	X11	Y11	Z11	X12	Y12	Z12	X13	Y13	Z13	X14	Y14	Z14	X15	Y15	Z15	X16	Y16	Z16	X17	Y17	Z17	X18	Y18	Z18	X19	Y19	Z19	X20	Y20	Z20	X21	Y21	Z21	X22	Y22	Z22	X23	Y23	Z23	X24	Y24	Z24	X25	Y25	Z25	X26	Y26	Z26	X27	Y27	Z27	X28	Y28	Z28	X29	Y29	Z29	X30	Y30	Z30	X31	Y31	Z31	X32	Y32	Z32	X33	Y33	Z33	X34	Y34	Z34	X35	Y35	Z35	X36	Y36	Z36	X37	Y37	Z37	X38	Y38	Z38	X39	Y39	Z39	X40	Y40	Z40	X41	Y41	Z41	X42	Y42	Z42	X43	Y43	Z43	X44	Y44	Z44	X45	Y45	Z45	X46	Y46	Z46	X47	Y47	Z47	X48	Y48	Z48	X49	Y49	Z49	X50	Y50	Z50	X51	Y51	Z51	X52	Y52	Z52	X53	Y53	Z53	X54	Y54	Z54	X55	Y55	Z55	X56	Y56	Z56	X57	Y57	Z57	X58	Y58	Z58	X59	Y59	Z59	X60	Y60	Z60	X61	Y61	Z61	X62	Y62	Z62	X63	Y63	Z63	

37	0.360	-577.72449	421.11496	430.26379	-171.82916	290.77243	1208.50989	-596.78802	475.86392	556.17188	-218.32344	376.49289	1295.89758	-589.38330	236.16222	385.78223	-127.02937	311.52759	1085.81506	-525.31354	-14.36529	188.15475	-586.57312	633.18005	1357.06116	-135.67879	408.39542	981.03754	-299.55136	546.43860	1367.11377	-103.26023	361.70404	971.34479	-410.54779	668.75800	1174.74353	-84.57533	425.60449	914.70325	-381.55795	529.76453	1589.27881	-421.43265	637.72766	1333.25256	-500.01855	-1.20670	379.53577	-516.21997	623.16302	1630.70154	-359.64960	573.44623	909.01538	-405.08127	639.26135	1647.69189	-499.86627	514.90393	1574.19409	-468.87579	501.88052	1400.61560	-522.24341	795.00098	1101.45410	-514.62231	759.21484	1148.85327	-621.83771	731.95221	1069.56274	-292.86166	680.88208	620.57654	-328.83417	781.28876	500.52994	-714.39868	652.61578	1044.11389	-472.18640	823.95636	1160.52783	-691.52448	641.89526	1193.15796	-316.26782	782.17596	326.87140	-361.24118	823.02704	121.52056	-397.16190	959.33563	55.78554	-411.60556	775.28021	93.24654	-482.33789	431.22870	1126.06433	-412.56360	416.47836	1230.34631	-560.07312	578.31927	898.31104	-517.95203	405.17249	942.26471	-374.41916	402.75717	933.85675	-549.15515	22.81664	339.18375	-3102.07495	1973.18237	1023.46600	-3140.70532	2012.53357	1022.14520																									-430.58920	623.38794	1680.70764																																							 
38	0.370	-583.82648	487.51111	425.37741	-170.37663	342.93570	1194.83594	-601.70959	538.27411	552.43091	-214.54944	426.07617	1284.80762	-592.59167	302.39236	391.99377	-128.49918	367.73178	1072.01099	-532.73395	47.77979	201.30554	-587.23315	677.87872	1354.53101	-140.95837	467.17599	970.18628	-297.62363	594.56342	1362.42395	-107.59328	421.50424	958.73712	-413.55289	716.93561	1171.10510	-90.84534	487.44516	903.72229	-379.61478	576.52148	1586.38171	-421.48404	684.92371	1329.98108	-499.27188	66.88448	391.43344	-514.76349	669.16632	1628.12415	-359.83868	623.77100	904.88477	-403.61206	685.76910	1645.08594	-497.84378	561.09344	1571.35620	-466.08026	548.56128	1398.27722	-528.03217	833.81201	1080.29370	-517.32404	802.04132	1130.12683	-627.15393	766.46149	1057.14758	-294.36108	722.33185	608.15479	-327.93082	819.89136	486.59805	-720.28998	684.95300	1042.91907	-475.14053	868.26251	1133.76123	-695.20142	677.87549	1192.58313	-317.13058	814.61395	311.98135	-363.30966	844.77478	104.92792	-397.76044	985.74048	41.30197	-411.91208	794.86078	77.37542	-479.02066	478.88782	1123.99817	-409.40259	463.79922	1226.82239	-561.98688	628.49310	898.26453	-518.29169	455.12955	938.43713	-374.55844	453.14059	928.43158	-550.21185	89.69350	351.88736	-3102.00098	1973.13611	1023.43884	-3140.79639	2012.55530	1022.10968																									-429.13400	669.82959	1678.47864																																							 
39	0.380	-590.61572	555.12573	420.60681	-168.05365	396.43311	1179.02686	-607.11127	600.67609	548.60870	-210.23256	476.34778	1271.80017	-595.72540	372.35715	395.50311	-130.05013	426.07193	1056.20691	-538.96210	114.27467	210.97166	-588.12323	721.86084	1351.90576	-146.45694	528.56439	958.17798	-295.51047	642.68292	1356.47913	-112.82054	483.92813	944.40289	-416.94839	765.50104	1166.54236	-98.60087	551.65063	891.46765	-377.45065	623.16437	1582.71741	-421.82745	731.66632	1325.31116	-498.87634	137.00143	400.05591	-513.25439	714.66943	1624.75940	-360.06345	673.07983	899.93060	-402.19046	732.09259	1641.70996	-495.46817	606.83887	1567.76196	-463.08563	594.76520	1394.70947	-536.48560	870.93451	1056.55432	-522.27271	844.31342	1108.29675	-634.89258	799.81061	1043.84045	-297.94937	764.12769	598.32251	-326.11563	856.65155	472.04092	-726.26233	715.33551	1041.65613	-481.20370	911.62469	1103.44177	-699.08734	712.94690	1191.70996	-320.63718	840.62622	296.26981	-367.99091	853.21429	85.86806	-395.73859	998.91547	40.22055	-413.22180	803.42120	55.65952	-475.61700	526.51489	1120.50891	-405.72076	511.05148	1221.86450	-563.10986	678.39337	897.36749	-518.65063	504.21399	932.73242	-374.25864	502.59912	921.81494	-551.36578	159.03181	361.11227	-3101.92236	1973.10620	1023.44220	-3140.67041	2012.51770	1022.02148																									-427.53522	716.03711	1675.33130																																							 
40	0.390	-597.22742	624.14886	415.94861	-164.99884	451.32956	1161.41174	-612.44220	663.01288	544.71875	-205.66304	527.42902	1257.07642	-599.78766	444.66028	396.33691	-131.83501	486.45477	1038.82312	-544.42682	185.02983	217.37167	-589.19269	765.09473	1348.74976	-153.04585	592.36499	945.51379	-293.16345	691.45868	1349.99048	-118.98440	548.69623	929.01324	-420.82285	814.05682	1161.33679	-107.72180	618.36273	878.73578	-375.08060	669.64172	1578.54541	-422.84344	779.43597	1319.47058	-499.04367	209.38771	405.41632	-511.91663	759.74786	1621.31299	-360.37961	720.99860	894.54047	-400.72708	778.08807	1638.18945	-493.02606	652.34778	1563.53442	-459.79688	640.44165	1390.04456	-548.13196	906.97095	1030.97327	-529.43146	885.09631	1083.63208	-644.70435	831.65790	1030.36096	-299.94507	806.74646	591.19415	-326.07269	894.29834	458.89969	-732.00000	743.52002	1040.58777	-490.60327	953.08936	1070.08679	-702.85223	747.24341	1190.45862	-320.90445	863.13544	284.94998	-371.55453	852.30908	76.69041	-398.69708	995.73944	40.72876	-416.44675	799.82886	46.31775	-472.43576	573.73853	1115.49048	-401.50024	558.32947	1215.49048	-563.40674	727.75848	895.52826	-519.27258	551.71161	925.69379	-373.02756	550.12280	914.47870	-552.96936	230.87819	366.92386	-3101.84619	1973.14771	1023.45123	-3140.74438	2012.54016	1022.07867																									-425.93655	761.95227	1671.64844																																							 
